<?xml version="1.0" encoding="UTF-8"?>
<svg version="1.1" xmlns="http://www.w3.org/2000/svg" width="180" height="72">
<path d="M0 0 C3.65316671 1.24976756 4.78065836 1.67098753 7 5 C6.2265625 5.86625 6.2265625 5.86625 5.4375 6.75 C3.75601104 8.85856105 3.75601104 8.85856105 4.25 11.125 C4.9878892 13.04498297 4.9878892 13.04498297 6 15 C6.5350086 20.36762727 6.66175234 24.69931437 4.1875 29.5625 C2 32 2 32 -1 34 C-0.030625 34.78375 0.93875 35.5675 1.9375 36.375 C4.43624869 38.3952649 5.83396989 39.63909744 6.23828125 42.953125 C6.4181749 48.52036011 5.75932734 51.61411811 2 56 C-1.51315495 59.6432718 -6.12212956 60.44448589 -11 61 C-16.88033469 61.00884261 -22.03618076 60.34769204 -27 57 C-30.80424064 53.19575936 -32.74684027 50.44293429 -33 45 C-32 44 -32 44 -30.15234375 43.90234375 C-28.1015625 43.93489583 -26.05078125 43.96744792 -24 44 C-23.608125 44.94875 -23.21625 45.8975 -22.8125 46.875 C-21.28417736 50.03251868 -21.28417736 50.03251868 -18.875 51.4375 C-14.31061341 52.33053216 -9.27315911 52.42698314 -5.2265625 49.88671875 C-3.35055119 47.00100708 -3.81046175 44.34850904 -4 41 C-4.86165771 40.85751831 -4.86165771 40.85751831 -5.74072266 40.7121582 C-8.37261063 40.26537891 -10.99838027 39.78923696 -13.625 39.3125 C-14.52863281 39.16361328 -15.43226562 39.01472656 -16.36328125 38.86132812 C-22.31992973 37.75260888 -25.76906158 36.39160697 -30 32 C-32.75276297 27.13678541 -33.95080607 22.54636872 -33 17 C-31.2002486 11.68783056 -28.76646147 8.09819996 -24 5 C-23.46503906 4.63519531 -22.93007812 4.27039063 -22.37890625 3.89453125 C-18.13012883 2.29687932 -13.59027217 2.96670073 -9.11132812 3.16601562 C-4.75710838 3.36606779 -4.75710838 3.36606779 -0.97265625 1.49609375 C-0.49119141 0.75552734 -0.49119141 0.75552734 0 0 Z M-23 15 C-24.26217021 18.73687473 -24.76238017 22.17180477 -23.21484375 25.8828125 C-21.01044287 28.97644628 -18.69446998 30.39896702 -15.0625 31.0625 C-11.04220722 31.28289412 -8.37375732 30.24917155 -5 28 C-2.32008674 23.9801301 -2.0822275 20.72115405 -3 16 C-5.64617451 12.67531921 -7.1061475 11.3721254 -11.2265625 10.5625 C-16.27020142 10.29260628 -19.7507592 10.83691022 -23 15 Z " fill="#FFFFFF" transform="translate(115,11)"/>
<path d="M0 0 C1.6328125 0.82421875 1.6328125 0.82421875 3.8828125 2.32421875 C4.2128125 1.66421875 4.5428125 1.00421875 4.8828125 0.32421875 C7.5228125 0.32421875 10.1628125 0.32421875 12.8828125 0.32421875 C12.8828125 11.87421875 12.8828125 23.42421875 12.8828125 35.32421875 C10.2428125 35.32421875 7.6028125 35.32421875 4.8828125 35.32421875 C4.5528125 34.66421875 4.2228125 34.00421875 3.8828125 33.32421875 C3.1403125 33.81921875 2.3978125 34.31421875 1.6328125 34.82421875 C-3.76429337 37.50354209 -10.6157525 37.37277682 -16.30859375 35.66796875 C-21.95707322 32.83762915 -24.19200398 28.09976931 -26.1171875 22.32421875 C-26.72212346 16.32139266 -26.1052605 11.68214276 -23.1171875 6.32421875 C-16.92776275 -0.8174252 -9.23767484 -2.94855673 0 0 Z M-16.1171875 12.32421875 C-17.6719544 15.43375254 -17.40363187 17.88688636 -17.1171875 21.32421875 C-14.8583938 25.56450494 -14.8583938 25.56450494 -11.1171875 28.32421875 C-8.05798176 28.74493467 -5.1704129 28.80935992 -2.1171875 28.32421875 C0.63850697 26.1426273 2.31869997 24.45244381 3.8828125 21.32421875 C4.43005321 15.63291538 3.47614957 12.7630469 -0.1171875 8.32421875 C-6.38376546 5.19092977 -12.00780357 6.93065234 -16.1171875 12.32421875 Z " fill="#FFFFFF" transform="translate(152.1171875,14.67578125)"/>
<path d="M0 0 C4.49258429 3.36943822 8.09100788 7.36712172 9.5 12.875 C10.31426676 19.38913408 9.33647506 24.48985611 5.5 29.875 C2.00589395 33.55156589 -1.23897482 35.68861819 -6.390625 36.11328125 C-13.37278898 36.26753836 -17.93432326 36.2564902 -23.5 31.875 C-27.63910375 27.51216091 -29.56700153 23.54793689 -29.875 17.5625 C-29.72489469 11.92416942 -27.90421531 7.40476181 -24.00390625 3.30078125 C-17.36314127 -2.47883715 -8.17539258 -2.62780476 0 0 Z M-17.5 8.875 C-19.9730118 12.58451771 -20.81314598 15.43006677 -20.5 19.875 C-18.99717203 23.93263553 -18.11841259 25.46272494 -14.5 27.875 C-11.43473649 28.42031842 -8.56591671 28.41825893 -5.5 27.875 C-2.74430553 25.69340855 -1.06411253 24.00322506 0.5 20.875 C1.04724071 15.18369663 0.09333707 12.31382815 -3.5 7.875 C-8.18435269 5.53282365 -13.25109717 6.04239811 -17.5 8.875 Z " fill="#FFFFFF" transform="translate(69.5,15.125)"/>
<path d="M0 0 C3.3 0 6.6 0 10 0 C12.97 7.59 15.94 15.18 19 23 C21.17574586 20.82425414 21.80763553 19.30862727 22.91015625 16.46484375 C23.26013672 15.57345703 23.61011719 14.68207031 23.97070312 13.76367188 C24.33099609 12.83103516 24.69128906 11.89839844 25.0625 10.9375 C25.78029206 9.09156751 26.5002298 7.24646745 27.22265625 5.40234375 C27.53984619 4.58241943 27.85703613 3.76249512 28.18383789 2.91772461 C29 1 29 1 30 0 C33.00003445 -0.14177857 35.99757235 -0.04228771 39 0 C36.57606156 7.73509365 33.50605264 15.11637146 30.3125 22.5625 C29.80138672 23.76197266 29.29027344 24.96144531 28.76367188 26.19726562 C27.51224198 29.13286285 26.25761707 32.06704935 25 35 C21.7 35 18.4 35 15 35 C10.84946477 27.04913095 7.05097266 19.01312319 3.5625 10.75 C3.20865234 9.91621826 2.85480469 9.08243652 2.49023438 8.22338867 C2.16474609 7.44326416 1.83925781 6.66313965 1.50390625 5.859375 C1.21330322 5.16295898 0.9227002 4.46654297 0.62329102 3.74902344 C0 2 0 2 0 0 Z " fill="#FFFFFF" transform="translate(0,15)"/>
<path d="M0 0 C2.97 0 5.94 0 9 0 C9 16.5 9 33 9 50 C6.03 50 3.06 50 0 50 C0 33.5 0 17 0 0 Z " fill="#FFFFFF" transform="translate(171,0)"/>
</svg>
